{
	"asset":{
		"generator":"Khronos glTF Blender I/O v3.6.27",
		"version":"2.0"
	},
	"extensionsUsed":[
		"KHR_materials_specular",
		"KHR_materials_ior"
	],
	"scene":0,
	"scenes":[
		{
			"name":"Scene",
			"nodes":[
				4
			]
		}
	],
	"nodes":[
		{
			"mesh":0,
			"name":"Cube.038",
			"rotation":[
				0,
				0.431719034910202,
				0,
				0.9020081162452698
			],
			"scale":[
				0.24345345795154572,
				0.2434534728527069,
				0.24345345795154572
			],
			"translation":[
				0.007115840911865234,
				0.1907913237810135,
				-0.31449317932128906
			]
		},
		{
			"mesh":1,
			"name":"Cube.040",
			"rotation":[
				0,
				-0.9868312478065491,
				0,
				0.16175328195095062
			],
			"scale":[
				0.2368910312652588,
				0.23689109086990356,
				0.2368910312652588
			],
			"translation":[
				-0.42966508865356445,
				0.1904432326555252,
				0.12019920349121094
			]
		},
		{
			"mesh":2,
			"name":"Cube.041",
			"rotation":[
				0,
				-0.34280505776405334,
				0,
				0.9394065737724304
			],
			"scale":[
				0.30443698167800903,
				0.30443695187568665,
				0.30443698167800903
			],
			"translation":[
				0.38180971145629883,
				0.1907912939786911,
				0.2806663513183594
			]
		},
		{
			"mesh":3,
			"name":"Cube.042",
			"rotation":[
				0,
				-0.8597025275230408,
				0,
				0.5107952356338501
			],
			"scale":[
				2.596564292907715,
				2.5965640544891357,
				2.596564292907715
			],
			"translation":[
				0.014474630355834961,
				3.8125741481781006,
				0.006936073303222656
			]
		},
		{
			"children":[
				0,
				1,
				2,
				3
			],
			"mesh":4,
			"name":"Tree"
		}
	],
	"materials":[
		{
			"doubleSided":true,
			"extensions":{
				"KHR_materials_specular":{
					"specularColorFactor":[
						0.3570985795284445,
						0.3570985795284445,
						0.3570985795284445
					]
				},
				"KHR_materials_ior":{
					"ior":1.4500000476837158
				}
			},
			"name":"Wood",
			"pbrMetallicRoughness":{
				"baseColorTexture":{
					"index":0
				},
				"metallicFactor":0,
				"roughnessFactor":0.5
			}
		},
		{
			"doubleSided":true,
			"extensions":{
				"KHR_materials_specular":{
					"specularColorFactor":[
						0.18293330138259942,
						0.18293330138259942,
						0.18293330138259942
					]
				},
				"KHR_materials_ior":{
					"ior":1.4500000476837158
				}
			},
			"name":"Tree_untextured",
			"pbrMetallicRoughness":{
				"baseColorFactor":[
					0.057317860424518585,
					0.22609415650367737,
					0.023253479972481728,
					1
				],
				"metallicFactor":0,
				"roughnessFactor":0.5
			}
		}
	],
	"meshes":[
		{
			"name":"Mesh",
			"primitives":[
				{
					"attributes":{
						"POSITION":0,
						"NORMAL":1,
						"TEXCOORD_0":2
					},
					"indices":3,
					"material":0
				}
			]
		},
		{
			"name":"Mesh",
			"primitives":[
				{
					"attributes":{
						"POSITION":4,
						"NORMAL":5,
						"TEXCOORD_0":6
					},
					"indices":3,
					"material":0
				}
			]
		},
		{
			"name":"Mesh",
			"primitives":[
				{
					"attributes":{
						"POSITION":7,
						"NORMAL":8,
						"TEXCOORD_0":9
					},
					"indices":3,
					"material":0
				}
			]
		},
		{
			"name":"Mesh",
			"primitives":[
				{
					"attributes":{
						"POSITION":10,
						"NORMAL":11,
						"TEXCOORD_0":12
					},
					"indices":13,
					"material":1
				}
			]
		},
		{
			"name":"Mesh",
			"primitives":[
				{
					"attributes":{
						"POSITION":14,
						"NORMAL":15,
						"TEXCOORD_0":16
					},
					"indices":17,
					"material":0
				}
			]
		}
	],
	"textures":[
		{
			"sampler":0,
			"source":0
		}
	],
	"images":[
		{
			"mimeType":"image/png",
			"name":"tree",
			"uri":"tree.png"
		}
	],
	"accessors":[
		{
			"bufferView":0,
			"componentType":5126,
			"count":225,
			"max":[
				2.55332612991333,
				0.2584080398082733,
				0.9188387393951416
			],
			"min":[
				-0.9657708406448364,
				-0.8364026546478271,
				-0.8139890432357788
			],
			"type":"VEC3"
		},
		{
			"bufferView":1,
			"componentType":5126,
			"count":225,
			"type":"VEC3"
		},
		{
			"bufferView":2,
			"componentType":5126,
			"count":225,
			"type":"VEC2"
		},
		{
			"bufferView":3,
			"componentType":5123,
			"count":1056,
			"type":"SCALAR"
		},
		{
			"bufferView":4,
			"componentType":5126,
			"count":225,
			"max":[
				2.989262104034424,
				0.2736394703388214,
				0.6336529850959778
			],
			"min":[
				-0.8873870372772217,
				-0.8364026546478271,
				-0.9902560114860535
			],
			"type":"VEC3"
		},
		{
			"bufferView":5,
			"componentType":5126,
			"count":225,
			"type":"VEC3"
		},
		{
			"bufferView":6,
			"componentType":5126,
			"count":225,
			"type":"VEC2"
		},
		{
			"bufferView":7,
			"componentType":5126,
			"count":225,
			"max":[
				2.55332612991333,
				0.2354172319173813,
				0.9188387393951416
			],
			"min":[
				-0.9657708406448364,
				-0.8364026546478271,
				-0.8139890432357788
			],
			"type":"VEC3"
		},
		{
			"bufferView":8,
			"componentType":5126,
			"count":225,
			"type":"VEC3"
		},
		{
			"bufferView":9,
			"componentType":5126,
			"count":225,
			"type":"VEC2"
		},
		{
			"bufferView":10,
			"componentType":5126,
			"count":358,
			"max":[
				0.6181542277336121,
				0.5662894248962402,
				0.6181542873382568
			],
			"min":[
				-0.6181542873382568,
				-1.027513861656189,
				-0.6181542873382568
			],
			"type":"VEC3"
		},
		{
			"bufferView":11,
			"componentType":5126,
			"count":358,
			"type":"VEC3"
		},
		{
			"bufferView":12,
			"componentType":5126,
			"count":358,
			"type":"VEC2"
		},
		{
			"bufferView":13,
			"componentType":5123,
			"count":1728,
			"type":"SCALAR"
		},
		{
			"bufferView":14,
			"componentType":5126,
			"count":245,
			"max":[
				0.4256466329097748,
				2.0219504833221436,
				0.43982312083244324
			],
			"min":[
				-0.44327324628829956,
				0.00031694621429778636,
				-0.41034114360809326
			],
			"type":"VEC3"
		},
		{
			"bufferView":15,
			"componentType":5126,
			"count":245,
			"type":"VEC3"
		},
		{
			"bufferView":16,
			"componentType":5126,
			"count":245,
			"type":"VEC2"
		},
		{
			"bufferView":17,
			"componentType":5123,
			"count":1152,
			"type":"SCALAR"
		}
	],
	"bufferViews":[
		{
			"buffer":0,
			"byteLength":2700,
			"byteOffset":0,
			"target":34962
		},
		{
			"buffer":0,
			"byteLength":2700,
			"byteOffset":2700,
			"target":34962
		},
		{
			"buffer":0,
			"byteLength":1800,
			"byteOffset":5400,
			"target":34962
		},
		{
			"buffer":0,
			"byteLength":2112,
			"byteOffset":7200,
			"target":34963
		},
		{
			"buffer":0,
			"byteLength":2700,
			"byteOffset":9312,
			"target":34962
		},
		{
			"buffer":0,
			"byteLength":2700,
			"byteOffset":12012,
			"target":34962
		},
		{
			"buffer":0,
			"byteLength":1800,
			"byteOffset":14712,
			"target":34962
		},
		{
			"buffer":0,
			"byteLength":2700,
			"byteOffset":16512,
			"target":34962
		},
		{
			"buffer":0,
			"byteLength":2700,
			"byteOffset":19212,
			"target":34962
		},
		{
			"buffer":0,
			"byteLength":1800,
			"byteOffset":21912,
			"target":34962
		},
		{
			"buffer":0,
			"byteLength":4296,
			"byteOffset":23712,
			"target":34962
		},
		{
			"buffer":0,
			"byteLength":4296,
			"byteOffset":28008,
			"target":34962
		},
		{
			"buffer":0,
			"byteLength":2864,
			"byteOffset":32304,
			"target":34962
		},
		{
			"buffer":0,
			"byteLength":3456,
			"byteOffset":35168,
			"target":34963
		},
		{
			"buffer":0,
			"byteLength":2940,
			"byteOffset":38624,
			"target":34962
		},
		{
			"buffer":0,
			"byteLength":2940,
			"byteOffset":41564,
			"target":34962
		},
		{
			"buffer":0,
			"byteLength":1960,
			"byteOffset":44504,
			"target":34962
		},
		{
			"buffer":0,
			"byteLength":2304,
			"byteOffset":46464,
			"target":34963
		}
	],
	"samplers":[
		{
			"magFilter":9729,
			"minFilter":9987
		}
	],
	"buffers":[
		{
			"byteLength":48768,
			"uri":"pine_tree.bin"
		}
	]
}
