{
	"asset":{
		"generator":"Khronos glTF Blender I/O v3.6.27",
		"version":"2.0"
	},
	"extensionsUsed":[
		"KHR_materials_emissive_strength",
		"KHR_lights_punctual"
	],
	"extensionsRequired":[
		"KHR_lights_punctual"
	],
	"extensions":{
		"KHR_lights_punctual":{
			"lights":[
				{
					"color":[
						1,
						0.21423014998435974,
						0.981834352016449
					],
					"intensity":6830,
					"type":"directional",
					"name":"Sun"
				}
			]
		}
	},
	"scene":0,
	"scenes":[
		{
			"name":"Scene",
			"nodes":[
				0,
				1,
				2,
				3
			]
		}
	],
	"nodes":[
		{
			"mesh":0,
			"name":"node_damagedHelmet_-6514",
			"rotation":[
				0.70710688829422,
				0,
				0,
				0.7071066498756409
			]
		},
		{
			"camera":0,
			"name":"Camera",
			"rotation":[
				-0.20603421330451965,
				0.25098350644111633,
				0.05476647615432739,
				0.9442234039306641
			],
			"translation":[
				1.685664415359497,
				1.4236894845962524,
				2.934969425201416
			]
		},
		{
			"mesh":1,
			"name":"Sphere",
			"scale":[
				0.4342691898345947,
				0.4342691898345947,
				0.4342691898345947
			],
			"translation":[
				-0.819143533706665,
				-0.19941535592079163,
				0.8416246175765991
			]
		},
		{
			"extensions":{
				"KHR_lights_punctual":{
					"light":0
				}
			},
			"name":"Sun.001",
			"rotation":[
				-0.5933019518852234,
				-0.06527348607778549,
				-0.1562768667936325,
				0.7869623899459839
			],
			"translation":[
				-0.08339647203683853,
				0.6972013711929321,
				0.9959045648574829
			]
		}
	],
	"cameras":[
		{
			"name":"Camera",
			"perspective":{
				"aspectRatio":1.3333333333333333,
				"yfov":0.6024157157085692,
				"zfar":1000,
				"znear":0.10000000149011612
			},
			"type":"perspective"
		}
	],
	"materials":[
		{
			"emissiveFactor":[
				1,
				1,
				1
			],
			"emissiveTexture":{
				"index":0
			},
			"extensions":{
				"KHR_materials_emissive_strength":{
					"emissiveStrength":4
				}
			},
			"name":"Material_MR",
			"normalTexture":{
				"index":1
			},
			"occlusionTexture":{
				"index":2
			},
			"pbrMetallicRoughness":{
				"baseColorTexture":{
					"index":3
				},
				"metallicRoughnessTexture":{
					"index":2
				}
			}
		},
		{
			"doubleSided":true,
			"name":"Material",
			"pbrMetallicRoughness":{
				"baseColorFactor":[
					0.800000011920929,
					0.800000011920929,
					0.800000011920929,
					1
				],
				"roughnessFactor":0
			}
		}
	],
	"meshes":[
		{
			"name":"mesh_helmet_LP_13930damagedHelmet",
			"primitives":[
				{
					"attributes":{
						"POSITION":0,
						"NORMAL":1,
						"TEXCOORD_0":2,
						"TANGENT":3
					},
					"indices":4,
					"material":0
				}
			]
		},
		{
			"name":"Sphere",
			"primitives":[
				{
					"attributes":{
						"POSITION":5,
						"NORMAL":6,
						"TEXCOORD_0":7,
						"TANGENT":8
					},
					"indices":9,
					"material":1
				}
			]
		}
	],
	"textures":[
		{
			"sampler":0,
			"source":0
		},
		{
			"sampler":0,
			"source":1
		},
		{
			"sampler":0,
			"source":2
		},
		{
			"sampler":0,
			"source":3
		}
	],
	"images":[
		{
			"mimeType":"image/jpeg",
			"name":"Default_emissive",
			"uri":"Default_emissive.jpg"
		},
		{
			"mimeType":"image/jpeg",
			"name":"Default_normal",
			"uri":"Default_normal.jpg"
		},
		{
			"mimeType":"image/png",
			"name":"Default_AO-Default_metalRoughness",
			"uri":"Default_AO-Default_metalRoughness.png"
		},
		{
			"mimeType":"image/jpeg",
			"name":"Default_albedo",
			"uri":"Default_albedo.jpg"
		}
	],
	"accessors":[
		{
			"bufferView":0,
			"componentType":5126,
			"count":14890,
			"max":[
				0.9424954056739807,
				0.8128451108932495,
				0.900973916053772
			],
			"min":[
				-0.9474585652351379,
				-1.18715500831604,
				-0.9009949564933777
			],
			"type":"VEC3"
		},
		{
			"bufferView":1,
			"componentType":5126,
			"count":14890,
			"type":"VEC3"
		},
		{
			"bufferView":2,
			"componentType":5126,
			"count":14890,
			"type":"VEC2"
		},
		{
			"bufferView":3,
			"componentType":5126,
			"count":14890,
			"type":"VEC4"
		},
		{
			"bufferView":4,
			"componentType":5123,
			"count":46356,
			"type":"SCALAR"
		},
		{
			"bufferView":5,
			"componentType":5126,
			"count":559,
			"max":[
				0.9999997019767761,
				1,
				0.9999993443489075
			],
			"min":[
				-0.9999990463256836,
				-1,
				-1
			],
			"type":"VEC3"
		},
		{
			"bufferView":6,
			"componentType":5126,
			"count":559,
			"type":"VEC3"
		},
		{
			"bufferView":7,
			"componentType":5126,
			"count":559,
			"type":"VEC2"
		},
		{
			"bufferView":8,
			"componentType":5126,
			"count":559,
			"type":"VEC4"
		},
		{
			"bufferView":9,
			"componentType":5123,
			"count":2880,
			"type":"SCALAR"
		}
	],
	"bufferViews":[
		{
			"buffer":0,
			"byteLength":178680,
			"byteOffset":0,
			"target":34962
		},
		{
			"buffer":0,
			"byteLength":178680,
			"byteOffset":178680,
			"target":34962
		},
		{
			"buffer":0,
			"byteLength":119120,
			"byteOffset":357360,
			"target":34962
		},
		{
			"buffer":0,
			"byteLength":238240,
			"byteOffset":476480,
			"target":34962
		},
		{
			"buffer":0,
			"byteLength":92712,
			"byteOffset":714720,
			"target":34963
		},
		{
			"buffer":0,
			"byteLength":6708,
			"byteOffset":807432,
			"target":34962
		},
		{
			"buffer":0,
			"byteLength":6708,
			"byteOffset":814140,
			"target":34962
		},
		{
			"buffer":0,
			"byteLength":4472,
			"byteOffset":820848,
			"target":34962
		},
		{
			"buffer":0,
			"byteLength":8944,
			"byteOffset":825320,
			"target":34962
		},
		{
			"buffer":0,
			"byteLength":5760,
			"byteOffset":834264,
			"target":34963
		}
	],
	"samplers":[
		{
			"magFilter":9729,
			"minFilter":9987
		}
	],
	"buffers":[
		{
			"byteLength":840024,
			"uri":"damaged_helmet.bin"
		}
	]
}
